<svg width="140" height="59" viewBox="0 0 172 59" fill="none" xmlns="http://www.w3.org/2000/svg">
<path  stroke = "black" d="M33.136 46.352C33.136 54.1173 28.3147 58 18.672 58H0.56V18.256H18.416C23.1947 18.256 26.7147 19.1093 28.976 20.816C31.28 22.5227 32.432 25.1467 32.432 28.688C32.432 32.2293 30.9387 34.96 27.952 36.88V37.136C31.408 38.7147 33.136 41.7867 33.136 46.352ZM16.048 50.064C17.2 50.064 17.968 49.8293 18.352 49.36C18.736 48.848 18.928 47.8027 18.928 46.224C18.928 44.6453 18.7147 43.536 18.288 42.896C17.904 42.2133 17.1573 41.872 16.048 41.872H14.192V50.064H16.048ZM16.112 34.832C16.88 34.832 17.4347 34.576 17.776 34.064C18.16 33.552 18.352 32.6773 18.352 31.44C18.352 30.16 18.16 29.2427 17.776 28.688C17.4347 28.1333 16.8587 27.856 16.048 27.856H14.192V34.832H16.112ZM68.0465 31.056C68.0465 33.616 67.6198 35.664 66.7665 37.2C65.9558 38.6933 64.6758 40.016 62.9265 41.168L68.8785 58H54.7345L50.7665 44.304H49.7425V58H36.6225V18.256H53.5825C58.5318 18.256 62.1798 19.3013 64.5265 21.392C66.8732 23.44 68.0465 26.6613 68.0465 31.056ZM51.0865 36.496C52.0678 36.496 52.7505 36.2187 53.1345 35.664C53.5612 35.0667 53.7745 34.0427 53.7745 32.592C53.7745 31.1413 53.5612 30.1387 53.1345 29.584C52.7078 29.0293 52.0465 28.752 51.1505 28.752H49.4865V36.496H51.0865ZM98.029 58H72.685V18.256H98.925L98.029 28.816H86.381V33.616H96.557V42.832H86.381V48.272H98.925L98.029 58ZM135.657 58H122.217L120.937 51.856H113.833L112.489 58H99.625L107.881 18.256H127.401L135.657 58ZM119.977 43.6L117.545 30.288H117.289L114.793 43.6H119.977ZM171.016 58H155.976L151.944 44.816H151.24V58H138.248V18.256H151.24V34H151.944L157 18.256H171.656L163.4 38.928L171.016 58Z" fill="white"/>
<path stroke = "black" d="M5.192 11.128H4.088V16H0.0560001V1.096H4.928C6.64 1.096 7.912 1.488 8.744 2.272C9.576 3.056 9.992 4.344 9.992 6.136C9.992 7.928 9.6 9.208 8.816 9.976C8.032 10.744 6.824 11.128 5.192 11.128ZM5.648 7.888C5.792 7.616 5.864 7.128 5.864 6.424C5.864 5.72 5.784 5.224 5.624 4.936C5.464 4.648 5.144 4.504 4.664 4.504H4.088V8.296H4.76C5.208 8.296 5.504 8.16 5.648 7.888ZM12.0768 2.656C13.0048 1.456 14.5168 0.855999 16.6128 0.855999C18.7088 0.855999 20.2048 1.448 21.1008 2.632C22.0128 3.816 22.4688 5.744 22.4688 8.416C22.4688 11.072 22.0048 13.04 21.0768 14.32C20.1488 15.6 18.6448 16.24 16.5648 16.24C14.4848 16.24 12.9888 15.608 12.0768 14.344C11.1648 13.08 10.7088 11.12 10.7088 8.464C10.7088 5.792 11.1648 3.856 12.0768 2.656ZM18.3408 8.416C18.3408 6.944 18.2208 5.952 17.9808 5.44C17.7568 4.912 17.2848 4.648 16.5648 4.648C15.8608 4.648 15.4048 4.912 15.1968 5.44C14.9888 5.952 14.8848 6.936 14.8848 8.392V8.968C14.8848 10.52 14.9968 11.544 15.2208 12.04C15.4608 12.52 15.9328 12.76 16.6368 12.76C17.3568 12.76 17.8208 12.528 18.0288 12.064C18.2368 11.6 18.3408 10.64 18.3408 9.184V8.416ZM28.4229 16H24.3429V1.096H28.4229V16ZM41.6546 16H37.7186L34.6226 9.064H34.4306V16H30.7826V1.096H34.8386L37.7906 8.248H37.9826V1.096H41.6546V16ZM52.4309 4.72H49.6469V16H45.5429V4.72H42.5909L42.8309 1.096H52.6709L52.4309 4.72Z" fill="white"/>
<path d="M2.5 18L2.50219 58" stroke="black"/>
<path d="M5.5 18L5.50219 58" stroke="black"/>
<path d="M8.5 18L8.50219 58" stroke="black"/>
<path d="M38.5 18L38.5022 58" stroke="black"/>
<path d="M41.5 18L41.5022 58" stroke="black"/>
<path d="M44.5 18L44.5022 58" stroke="black"/>
<path d="M74.5 18L74.5022 58" stroke="black"/>
<path d="M77.5 18L77.5022 58" stroke="black"/>
<path d="M80.5 18L80.5022 58" stroke="black"/>
<path d="M140.5 18L140.502 58" stroke="black"/>
<path d="M143.5 18L143.502 58" stroke="black"/>
<path d="M146.5 18L146.502 58" stroke="black"/>
<path d="M109.49 18.0981L101.49 58.0981" stroke="black"/>
<path d="M112.49 18.0981L104.49 58.0981" stroke="black"/>
<path d="M115.49 18.0981L107.49 58.0981" stroke="black"/>
</svg>
